<?xml version="1.0" encoding="UTF-8"?><svg id="Capa_1" xmlns="http://www.w3.org/2000/svg" viewBox="0 0 655.5 655.5"><defs><style>.cls-1{fill:none;stroke:#000;stroke-miterlimit:10;stroke-width:8.5px;}</style></defs><g><path d="M67.82,276.01c.34-1.89,1.23-4.21,2.67-6.96,1.44-2.75,2.16-4.15,2.17-4.19,.36-1.21,2.98-1.37,7.86-.49,1.28,.23,1.85,.72,1.72,1.46-.16,.86-1.74,1.42-4.76,1.68-1.49,.15-2.89,1.31-4.2,3.47-1.31,2.16-2.18,4.43-2.61,6.81-.72,3.98,.3,7.64,3.07,10.96,2.77,3.32,6.5,5.41,11.2,6.26,5.38,.97,10.32,.22,14.79-2.25,4.48-2.48,7.15-6.12,8.02-10.92,.22-1.19,.26-2.26,.12-3.22-.13-.96-.53-1.89-1.19-2.79-.66-.9-1.24-1.61-1.74-2.13-.5-.51-1.35-1.28-2.55-2.31-1.2-1.02-2.07-1.77-2.6-2.25-.33-.27-.44-.67-.35-1.21,.12-.66,.82-.87,2.09-.64,.5,.09,2.52,1.31,6.06,3.64,1.1,.71,1.8,1.26,2.1,1.65,.31,.4,.55,.99,.74,1.79,.61,3.12,.57,6.63-.14,10.54-.64,3.53-2.05,6.75-4.22,9.64-2.17,2.89-5,5.11-8.48,6.64-3.48,1.53-7.16,1.95-11.04,1.25-6.62-1.2-11.68-4.35-15.18-9.46-3.5-5.11-4.7-10.76-3.57-16.97Z"/><path d="M79.35,238.55c.17-.51,.44-.95,.8-1.32,.36-.36,.72-.49,1.07-.37,.53,.17,.8,.6,.83,1.26-.02,.21-.04,.59-.05,1.14,0,.55-.01,.9-.02,1.05,0,.15,.01,.44,.04,.87,.03,.43,.07,.71,.13,.83,.06,.13,.13,.34,.23,.64,.1,.3,.23,.5,.38,.62,.16,.12,.36,.28,.61,.5,.25,.21,.53,.38,.86,.51,.32,.13,.68,.26,1.08,.39l23.32,7.69c2.77,.91,4.93,.59,6.47-.97,.21-.19,.55-.58,1-1.15,.46-.57,.84-.99,1.14-1.24,.3-.25,.61-.33,.92-.23,.62,.2,.78,.96,.5,2.27-.03,.08-.21,.52-.54,1.31-.33,.79-.72,1.74-1.16,2.85s-.79,2.08-1.07,2.91c-.27,.83-.55,1.79-.83,2.86-.28,1.07-.51,1.99-.68,2.74-.18,.76-.28,1.17-.3,1.25-.56,1.26-1.15,1.8-1.77,1.59-.31-.1-.51-.34-.6-.73-.09-.38-.15-.94-.18-1.67-.03-.73-.07-1.24-.12-1.52-.31-2.17-1.85-3.71-4.63-4.62l-23.32-7.69c-.4-.13-.76-.24-1.1-.33-.34-.09-.67-.12-.99-.1-.33,.02-.58,.04-.78,.04-.2,0-.42,.09-.68,.27-.25,.18-.44,.3-.55,.35-.11,.05-.31,.24-.59,.56-.28,.33-.46,.55-.55,.67-.09,.12-.29,.41-.61,.85-.32,.45-.53,.76-.64,.94-.43,.56-.91,.76-1.44,.58-.35-.12-.57-.43-.64-.94-.08-.51-.03-1.02,.14-1.54,.26-.79,.69-1.89,1.27-3.31,.59-1.41,1-2.47,1.23-3.19,.23-.71,.54-1.83,.92-3.35,.38-1.52,.68-2.62,.9-3.29Z"/><path d="M114.76,217.38c7.56-.67,13.58-2.07,18.08-4.2,.79-.35,1.65-1.26,2.57-2.72,.4-.6,.91-.74,1.53-.44,.54,.26,.8,.88,.77,1.84-.03,.96-.3,1.97-.82,3.02-1.52,3.11-3.66,5.02-6.43,5.71-5.62,1.48-11.41,2.33-17.34,2.54-1.74,.08-3.19,1.3-4.34,3.66-.51,1.05,.27,2.08,2.36,3.1l5.31,2.6c2.62,1.28,4.81,1.26,6.54-.08,.23-.16,.62-.5,1.15-1.01,.53-.51,.96-.86,1.3-1.07,.33-.21,.65-.24,.94-.1,.58,.29,.64,1.06,.18,2.32-.04,.08-.27,.48-.71,1.22-.44,.74-.95,1.63-1.53,2.67-.58,1.04-1.07,1.95-1.45,2.74-.35,.71-.72,1.56-1.13,2.55-.41,.99-.75,1.85-1.04,2.59-.29,.74-.45,1.15-.48,1.23-.73,1.18-1.38,1.62-1.97,1.34-.29-.14-.46-.41-.5-.8-.04-.39-.02-.95,.05-1.68,.07-.73,.1-1.24,.09-1.52-.01-2.19-1.33-3.93-3.96-5.21l-21.81-10.66c-.38-.18-.72-.34-1.04-.48-.32-.13-.64-.21-.97-.23-.33-.02-.59-.04-.78-.07-.19-.02-.43,.03-.71,.18-.28,.14-.47,.23-.59,.27-.12,.04-.34,.19-.66,.48-.32,.29-.53,.48-.64,.59-.11,.11-.35,.37-.72,.76-.38,.4-.63,.68-.76,.85-.5,.5-1,.62-1.5,.38-.67-.33-.72-1.16-.16-2.52,1.89-4.93,3.68-9.12,5.37-12.57,1.56-3.19,3.68-5.61,6.38-7.27,2.69-1.66,5.5-1.77,8.42-.35,3.46,1.69,5.65,4.6,6.58,8.72,.05,.21,.09,.42,.12,.62,.03,.2,.06,.34,.1,.43s.08,.17,.15,.25c.07,.08,.16,.15,.28,.21,.54,.26,1.81,.31,3.81,.12Zm-9.73,8.83c.89-.12,1.5-.54,1.85-1.25,.4-.82,.69-1.72,.85-2.69s.14-1.66-.06-2.09c-1.05-3.35-2.97-5.7-5.76-7.06-2.04-1-4.08-1.12-6.12-.38s-3.53,2.07-4.46,3.99c-.38,.79-.5,1.56-.35,2.3,.15,.75,.52,1.26,1.1,1.55l9.94,4.85c1.21,.59,2.22,.85,3.02,.78Z"/><path d="M115.58,168.97c1.13-1.55,2.93-3.26,5.42-5.12,2.49-1.86,3.75-2.8,3.77-2.83,.85-.93,3.28,.06,7.3,2.97,1.05,.76,1.36,1.45,.92,2.06-.51,.71-2.19,.53-5.02-.54-1.41-.5-3.17-.07-5.29,1.31-2.12,1.38-3.88,3.05-5.3,5.01-2.37,3.28-3.03,7.02-1.97,11.21,1.06,4.19,3.52,7.69,7.39,10.49,4.43,3.21,9.2,4.67,14.31,4.37,5.11-.29,9.09-2.42,11.96-6.37,.71-.98,1.21-1.93,1.51-2.85,.29-.92,.34-1.93,.13-3.03-.2-1.1-.42-1.99-.64-2.67-.22-.68-.66-1.74-1.3-3.18-.64-1.44-1.1-2.5-1.37-3.15-.18-.39-.11-.8,.21-1.24,.39-.54,1.11-.43,2.17,.33,.41,.3,1.71,2.27,3.88,5.9,.68,1.11,1.08,1.91,1.18,2.4,.1,.49,.07,1.13-.11,1.93-.8,3.08-2.36,6.23-4.69,9.44-2.11,2.91-4.76,5.19-7.98,6.86-3.21,1.67-6.72,2.44-10.52,2.31-3.8-.13-7.3-1.34-10.49-3.66-5.45-3.94-8.64-8.98-9.59-15.1-.95-6.12,.43-11.74,4.12-16.84Z"/><path d="M160.11,132.47l11.73,12.08c3.75,3.86,5.72,7.96,5.91,12.29,.2,4.34-1.37,8.12-4.69,11.34-3.77,3.66-7.5,5.08-11.18,4.26-3.68-.82-7.55-3.33-11.62-7.52l-10.95-11.28c-1.13-1.16-2.05-1.78-2.75-1.84-.7-.06-2.03,.34-3.98,1.2-.64,.3-1.16,.25-1.54-.15-.26-.27-.3-.64-.14-1.13,.17-.49,.45-.92,.84-1.3,.6-.58,1.25-1.13,1.94-1.64,.69-.51,1.31-1.03,1.85-1.55,.54-.52,1.36-1.4,2.46-2.63,1.1-1.23,1.91-2.09,2.42-2.59,.39-.38,.83-.64,1.32-.8,.49-.15,.87-.1,1.12,.17,.39,.4,.44,.9,.15,1.5-.66,1.36-.98,2.54-.96,3.55,.02,1.01,.5,2,1.44,2.97l9.69,9.98c4.1,4.23,7.54,6.82,10.31,7.78,2.77,.96,5.47,.17,8.1-2.39,2.9-2.82,3.84-5.87,2.82-9.14-1.02-3.27-3.6-7.04-7.74-11.3l-9.01-9.28c-.84-.86-1.54-1.41-2.11-1.63-.57-.22-1-.29-1.29-.2s-1,.39-2.13,.91c-.7,.29-1.25,.24-1.64-.16-.26-.27-.3-.64-.14-1.13,.17-.49,.45-.92,.84-1.3,.24-.23,.77-.67,1.6-1.31,.83-.64,1.35-1.07,1.56-1.27,.21-.2,.65-.71,1.32-1.52,.67-.81,1.11-1.32,1.32-1.52,.39-.38,.83-.64,1.32-.8,.49-.15,.87-.1,1.12,.17,.36,.37,.38,.9,.06,1.59-.69,1.38-1,2.42-.91,3.11,.09,.69,.6,1.52,1.54,2.48Z"/><path d="M191.13,139.75c1.09,1.56,2.28,2.64,3.58,3.23,1.3,.59,2.53,.48,3.7-.33l5.6-3.9c.65-.45,1.16-.96,1.53-1.53,.37-.57,.63-1.09,.78-1.56,.15-.47,.21-1.11,.17-1.9-.04-.79-.1-1.41-.19-1.86-.08-.45-.24-1.17-.48-2.17-.23-.99-.4-1.71-.5-2.15-.19-.94,.02-1.62,.63-2.05,.62-.43,1.55,.25,2.79,2.04,.5,.72,1.14,2.11,1.9,4.15,.76,2.04,1.17,3.36,1.22,3.94,.11,.6,.13,1.03,.05,1.28-.08,.25-.32,.52-.73,.81-.34,.24-2.77,1.86-7.29,4.87-4.52,3.01-7.84,5.25-9.96,6.73-.72,.5-1.52,1.09-2.4,1.76-.88,.67-1.62,1.25-2.21,1.75-.59,.5-.92,.77-.99,.82-1.21,.67-2,.74-2.37,.21-.19-.27-.2-.58-.05-.94s.44-.84,.86-1.45c.42-.6,.69-1.03,.82-1.29,1.05-1.92,.75-4.08-.92-6.48l-14.03-20.15c-.24-.34-.47-.65-.68-.92-.22-.27-.46-.5-.74-.67-.28-.18-.49-.32-.65-.44-.16-.12-.39-.18-.7-.19-.31,0-.53-.03-.65-.06-.12-.03-.39,0-.81,.1-.42,.09-.7,.16-.85,.21-.15,.05-.48,.15-1,.32-.52,.17-.88,.29-1.08,.37-.68,.19-1.18,.06-1.5-.4-.48-.69-.1-1.46,1.13-2.32,.68-.48,1.69-1.1,3-1.88,1.32-.77,2.28-1.38,2.9-1.81,.62-.43,1.53-1.14,2.75-2.13,1.22-.99,2.12-1.69,2.7-2.09,.44-.31,.92-.5,1.43-.57,.51-.07,.87,.04,1.08,.35,.32,.46,.29,.96-.09,1.51-.12,.2-.35,.5-.7,.91-.35,.41-.57,.69-.67,.85-.1,.15-.26,.39-.49,.72-.23,.33-.37,.57-.42,.71-.05,.15-.12,.36-.2,.65-.08,.28-.1,.53-.07,.73,.04,.2,.09,.46,.16,.78,.07,.32,.2,.63,.38,.92,.18,.3,.39,.62,.63,.96l13.63,19.58Z"/><path d="M216.76,87.86c3.85-1.83,8.27-1.63,13.27,.59,5,2.22,8.59,5.61,10.76,10.18,2.61,5.49,3.25,11,1.92,16.53-1.32,5.53-4.36,9.42-9.11,11.68-5.13,2.43-10.24,2.66-15.35,.66-5.1-1.99-9-5.82-11.68-11.47-2.78-5.86-3.21-11.35-1.26-16.46,1.94-5.11,5.76-9.01,11.45-11.71Zm-4.9,22.96c2.25,4.73,5.41,8.48,9.49,11.24,4.08,2.76,7.97,3.26,11.67,1.51,3.13-1.49,4.79-4.16,4.99-8.03,.2-3.87-.69-7.87-2.66-12.02-2.11-4.44-5-7.92-8.66-10.44-3.67-2.52-7.24-2.96-10.71-1.31-3.02,1.43-4.89,4.06-5.61,7.9-.72,3.83-.23,7.55,1.48,11.15Z"/><path d="M275.14,68.73c3.48-.69,6.92-.57,10.31,.35,3.39,.92,6.38,2.66,8.97,5.22,2.59,2.56,4.25,5.71,4.99,9.44,.59,3,.76,5.9,.5,8.69-.26,2.79-.94,5.37-2.05,7.74-1.11,2.37-2.79,4.4-5.05,6.1-2.26,1.7-4.99,2.86-8.18,3.49-2.21,.44-4.6,.77-7.17,1.02-2.57,.25-4.2,.44-4.9,.57-.82,.16-1.76,.38-2.84,.67-1.07,.28-1.98,.53-2.72,.75-.75,.22-1.16,.33-1.24,.35-1.38,.13-2.13-.12-2.25-.76-.06-.32,.05-.61,.34-.88,.29-.27,.74-.59,1.37-.98,.63-.38,1.05-.67,1.27-.85,1.74-1.33,2.32-3.43,1.76-6.3l-4.74-24.09c-.1-.5-.21-.93-.35-1.28-.13-.35-.26-.66-.37-.92-.12-.26-.31-.48-.58-.67-.27-.18-.47-.33-.6-.45s-.4-.22-.82-.3c-.42-.08-.72-.14-.9-.18-.18-.04-.56-.08-1.14-.13-.58-.05-1.01-.1-1.27-.14-.7-.1-1.1-.42-1.21-.97-.16-.82,.47-1.37,1.91-1.65,.65-.13,1.49-.28,2.49-.46,1.01-.17,1.82-.32,2.43-.44,1.27-.25,3.28-.74,6.03-1.47,2.75-.73,4.76-1.22,6.03-1.47Zm-6.34,6.71l4.76,24.16c.65,3.32,1.98,5.45,3.97,6.38,1.99,.93,4.52,1.09,7.59,.49,3.44-.68,5.81-3.01,7.11-7,1.3-3.99,1.49-8.33,.56-13.01-.98-4.96-3.3-8.79-6.98-11.49-3.68-2.7-7.71-3.62-12.09-2.76-1.43,.28-2.64,.72-3.63,1.32-.99,.6-1.42,1.24-1.28,1.92Z"/><path d="M317.99,80.48c.03,1.44,.53,2.15,1.49,2.12l5.38-.12c.63-.01,1.18-.12,1.65-.31,.48-.2,.83-.4,1.05-.61,.22-.21,.58-.58,1.07-1.1,.12-.14,.31-.39,.58-.74s.5-.61,.7-.78c.21-.17,.41-.25,.62-.26,.46,0,.7,.45,.72,1.38,0,.14-.03,.75-.08,1.85-.06,1.09-.08,1.82-.08,2.19,0,.37,.03,1.07,.08,2.09,.04,1.02,.07,1.65,.07,1.88,.03,1.21-.23,1.81-.77,1.83-.17,0-.34-.06-.5-.2-.17-.14-.33-.32-.48-.55-.15-.23-.28-.43-.39-.62-.11-.18-.24-.42-.39-.72-.15-.3-.25-.47-.29-.52-.56-.96-1.31-1.43-2.22-1.41l-6.57,.14c-.58,.01-.98,.14-1.18,.37-.2,.24-.3,.68-.28,1.33l.17,7.79c.04,1.95,.44,3.53,1.2,4.74,.76,1.21,1.84,1.8,3.26,1.77l6.82-.15c1.17-.03,2.12-.15,2.87-.38,.75-.23,1.4-.7,1.97-1.44,.57-.73,.98-1.37,1.24-1.91,.26-.54,.67-1.51,1.22-2.91,.36-.89,.91-1.34,1.66-1.36,.58-.01,.89,.56,.91,1.72,.02,.88-.26,2.29-.85,4.23-.58,1.94-1.04,3.21-1.36,3.82-.2,.42-.34,.7-.42,.84-.08,.14-.22,.26-.43,.36-.21,.1-.48,.15-.81,.16-.42,0-3.26,.01-8.52,.01-5.26,0-9.18,.03-11.77,.08-.88,.02-1.87,.06-2.97,.13-1.11,.07-2.04,.15-2.81,.24s-1.2,.13-1.28,.13c-1.38-.11-2.08-.49-2.09-1.14,0-.32,.15-.59,.48-.81,.33-.22,.83-.46,1.52-.73,.68-.27,1.15-.48,1.39-.62,1.94-1.02,2.88-2.99,2.81-5.91l-.54-24.55c0-.42-.03-.8-.06-1.15-.03-.35-.11-.67-.24-.97-.13-.3-.23-.54-.3-.72-.07-.18-.23-.37-.48-.55-.25-.18-.42-.31-.51-.41-.09-.09-.33-.21-.73-.37-.4-.15-.67-.25-.82-.29-.15-.04-.48-.14-1.01-.29-.53-.15-.89-.25-1.1-.29-.67-.22-1.02-.6-1.03-1.16-.02-.83,.7-1.27,2.16-1.3l17.96-.39c1-.02,2.43-.11,4.28-.27,1.85-.16,2.91-.24,3.16-.24,.96-.02,1.51,.29,1.65,.94,.41,1.66,.64,3.56,.69,5.69,.03,1.21-.29,1.82-.96,1.83-.79,.02-1.56-.85-2.31-2.59-.7-1.52-2.41-2.24-5.12-2.18l-7.45,.16c-.79,.02-1.31,.15-1.56,.38-.25,.24-.36,.61-.35,1.12l.26,11.68Z"/><path d="M386.4,69.28c1.88,.39,4.17,1.35,6.89,2.86,2.71,1.51,4.09,2.27,4.13,2.28,1.2,.39,1.29,3.02,.28,7.87-.27,1.27-.77,1.83-1.5,1.68-.86-.18-1.38-1.78-1.56-4.8-.12-1.49-1.24-2.92-3.36-4.29-2.12-1.37-4.37-2.3-6.74-2.79-3.96-.83-7.64,.1-11.04,2.78-3.4,2.68-5.58,6.36-6.56,11.03-1.12,5.36-.5,10.31,1.86,14.85,2.36,4.54,5.92,7.31,10.71,8.31,1.18,.25,2.26,.32,3.22,.21,.96-.11,1.9-.48,2.82-1.12,.92-.64,1.65-1.2,2.17-1.68,.53-.48,1.32-1.31,2.37-2.49,1.05-1.18,1.83-2.02,2.32-2.54,.28-.32,.68-.43,1.22-.31,.65,.14,.85,.84,.58,2.11-.1,.5-1.37,2.48-3.8,5.96-.74,1.08-1.31,1.76-1.71,2.06-.4,.3-1,.53-1.81,.69-3.14,.53-6.65,.39-10.53-.42-3.51-.73-6.69-2.23-9.52-4.47-2.84-2.25-4.97-5.13-6.41-8.66-1.44-3.52-1.76-7.21-.95-11.07,1.37-6.58,4.66-11.56,9.86-14.92,5.2-3.37,10.89-4.41,17.06-3.12Z"/><path d="M423.32,107.7c1.19,7.49,3,13.41,5.43,17.75,.41,.77,1.37,1.56,2.89,2.37,.62,.35,.8,.85,.54,1.5-.23,.56-.82,.86-1.78,.89-.96,.03-1.98-.17-3.07-.61-3.21-1.3-5.25-3.31-6.14-6.02-1.86-5.51-3.1-11.22-3.72-17.13-.2-1.73-1.51-3.09-3.95-4.08-1.08-.44-2.06,.42-2.93,2.56l-2.22,5.48c-1.1,2.71-.92,4.88,.53,6.52,.18,.22,.54,.58,1.08,1.08,.54,.5,.93,.9,1.16,1.22,.23,.32,.28,.63,.16,.93-.25,.6-1.01,.72-2.3,.34-.08-.03-.5-.24-1.27-.63-.77-.39-1.69-.84-2.76-1.35-1.08-.51-2.02-.93-2.83-1.26-.74-.3-1.61-.62-2.62-.95-1.01-.34-1.9-.62-2.66-.85s-1.18-.37-1.26-.4c-1.22-.65-1.71-1.27-1.47-1.87,.12-.3,.38-.49,.76-.55,.39-.07,.95-.09,1.68-.07,.73,.02,1.24,.02,1.53-.02,2.18-.16,3.83-1.6,4.92-4.31l9.13-22.49c.16-.39,.29-.75,.4-1.08,.11-.33,.17-.66,.16-.98,0-.33,0-.59,.01-.78,.01-.19-.06-.43-.23-.69-.16-.27-.26-.46-.31-.57-.04-.12-.22-.33-.52-.63-.31-.3-.52-.5-.64-.6-.12-.1-.39-.32-.81-.67-.42-.35-.72-.58-.9-.7-.53-.47-.69-.96-.48-1.47,.28-.69,1.11-.8,2.5-.34,5.05,1.55,9.35,3.04,12.91,4.49,3.29,1.33,5.85,3.29,7.69,5.86s2.15,5.36,.93,8.37c-1.45,3.57-4.2,5.95-8.25,7.16-.21,.07-.41,.12-.61,.17-.2,.04-.34,.09-.42,.13s-.16,.1-.24,.17c-.07,.07-.14,.17-.19,.3-.23,.56-.18,1.83,.14,3.81Zm-9.48-9.1c.19,.88,.64,1.46,1.38,1.76,.85,.35,1.76,.57,2.74,.66,.97,.1,1.67,.03,2.08-.21,3.27-1.28,5.48-3.35,6.65-6.23,.85-2.1,.84-4.15-.04-6.14-.88-1.98-2.31-3.38-4.28-4.18-.81-.33-1.59-.39-2.32-.19-.74,.2-1.22,.6-1.47,1.21l-4.16,10.25c-.51,1.25-.7,2.27-.57,3.07Z"/><path d="M470.92,105.59c3.6,2.28,5.79,6.12,6.59,11.54,.8,5.42-.16,10.26-2.86,14.53-3.25,5.13-7.56,8.62-12.95,10.45-5.38,1.83-10.3,1.35-14.74-1.47-4.8-3.03-7.72-7.24-8.76-12.62-1.04-5.38,.11-10.71,3.46-16,3.47-5.49,7.88-8.77,13.24-9.86,5.35-1.08,10.69,.06,16.02,3.43Zm-22.03,8.12c-2.8,4.43-4.28,9.1-4.43,14.03s1.5,8.48,4.96,10.67c2.93,1.85,6.08,1.83,9.45-.07,3.37-1.9,6.29-4.79,8.74-8.67,2.63-4.15,4.03-8.45,4.2-12.9,.17-4.45-1.37-7.7-4.61-9.75-2.82-1.79-6.05-1.96-9.67-.52-3.63,1.44-6.5,3.84-8.64,7.21Z"/><path d="M476.75,150.05c-1.98,2.15-2.58,4.24-1.8,6.29,.09,.27,.3,.74,.63,1.39,.33,.65,.55,1.17,.66,1.55,.1,.38,.04,.69-.17,.93-.44,.48-1.2,.31-2.27-.49-.06-.06-.3-.32-.71-.8-.41-.48-.95-1.06-1.61-1.77-.66-.7-1.31-1.35-1.95-1.94-.64-.59-1.31-1.16-2-1.71s-1.27-.98-1.73-1.31-.72-.53-.78-.58c-.92-1.04-1.16-1.79-.72-2.27,.22-.24,.52-.32,.91-.25,.39,.07,.92,.25,1.6,.53,.68,.28,1.16,.45,1.44,.52,2.1,.61,4.14-.15,6.13-2.3l12.31-13.34c2.2-2.38,3.35-4.07,3.46-5.04l.23-3.67c.04-.41,.06-.89,.09-1.43,.02-.55,.04-.97,.06-1.27,.02-.3,.04-.61,.06-.94,.02-.33,.06-.59,.13-.78,.06-.19,.14-.34,.24-.44,.35-.37,.75-.35,1.21,.07l4.46,4.12c.61,.57,.86,1.93,.74,4.09l-1.82,26.43c-.34,5.05-.35,7.73,0,8.04,.18,.17,.49,.07,.91-.29,.42-.37,1.36-1.33,2.81-2.9l11.51-12.47c.35-.38,.63-.73,.85-1.06,.22-.33,.4-.62,.55-.87,.14-.25,.21-.53,.2-.86-.01-.33,0-.56,0-.7,.02-.14-.06-.42-.25-.84-.18-.42-.31-.7-.38-.83-.08-.13-.27-.47-.59-1.02-.32-.55-.54-.91-.66-1.08-.33-.62-.31-1.14,.07-1.55,.25-.27,.62-.34,1.12-.2,.49,.14,.94,.4,1.34,.76,.61,.57,1.29,1.27,2.02,2.1,.73,.84,1.38,1.51,1.93,2.02,.55,.51,1.29,1.11,2.21,1.8,.92,.69,1.64,1.28,2.17,1.76,.4,.37,.69,.79,.87,1.27,.18,.48,.14,.86-.11,1.13-.38,.41-.88,.49-1.49,.23-.25-.1-.59-.26-1.04-.49s-.76-.38-.92-.48c-.17-.09-.43-.21-.79-.35-.36-.14-.62-.21-.79-.21-.17,0-.4-.02-.67-.05-.28-.04-.52,0-.72,.09-.2,.1-.44,.21-.7,.35-.27,.13-.53,.31-.8,.54-.27,.23-.56,.51-.87,.85l-18.83,20.39c-.82,.89-1.56,1.73-2.22,2.54-.66,.81-1.17,1.4-1.51,1.78-.38,.41-.87,.33-1.49-.24-.31-.28-.58-1.04-.83-2.28-.25-1.24-.33-2.7-.25-4.39l1.9-29.2c.11-1.41,.04-2.23-.2-2.46-.21-.2-1.39,.86-3.53,3.18l-9.58,10.38Z"/><path d="M536.23,166c.34,.42,.57,.88,.68,1.38,.11,.5,.02,.87-.26,1.11-.43,.35-.93,.36-1.51,.02-.17-.13-.48-.35-.94-.65-.46-.3-.75-.49-.88-.58-.13-.08-.38-.23-.76-.43-.38-.2-.63-.32-.77-.34-.14-.02-.36-.07-.66-.15-.3-.08-.54-.08-.73-.01-.18,.07-.43,.15-.74,.25-.31,.09-.61,.24-.89,.45-.28,.2-.58,.44-.91,.7l-18.99,15.57c-2.26,1.85-3.14,3.84-2.65,5.98,.05,.28,.2,.77,.44,1.46,.24,.69,.38,1.24,.43,1.63,.05,.39-.05,.69-.3,.89-.5,.41-1.23,.14-2.18-.8-.05-.06-.32-.45-.81-1.16-.49-.71-1.08-1.54-1.78-2.5-.7-.96-1.33-1.78-1.88-2.46-.56-.68-1.21-1.42-1.97-2.23-.75-.81-1.4-1.49-1.95-2.05s-.84-.86-.89-.93c-.77-1.15-.9-1.94-.4-2.35,.25-.21,.56-.25,.94-.12,.37,.13,.88,.38,1.51,.75,.63,.37,1.08,.61,1.35,.71,2,.9,4.12,.42,6.38-1.43l18.99-15.57c.32-.26,.61-.52,.87-.75,.25-.24,.46-.5,.61-.79,.15-.29,.28-.51,.39-.68,.1-.17,.15-.4,.13-.72-.02-.31-.01-.53,0-.65,.02-.12-.04-.39-.16-.8-.13-.41-.22-.69-.27-.83-.06-.14-.19-.47-.39-.97-.21-.51-.36-.85-.45-1.05-.24-.66-.15-1.17,.28-1.52,.29-.23,.67-.25,1.14-.04,.47,.21,.88,.52,1.22,.94,.53,.65,1.23,1.59,2.11,2.85,.88,1.25,1.55,2.17,2.03,2.75,.48,.58,1.25,1.44,2.34,2.58,1.08,1.14,1.85,1.98,2.3,2.53Z"/><path d="M549.63,183.77c1.22,1.85,1.86,3.95,1.91,6.31,0,1.1-.31,2-.92,2.71-.62,.71-1.56,1.48-2.84,2.32-1.04,.69-1.8,.69-2.26-.01-.18-.28-.19-.66-.01-1.15s.49-1.19,.95-2.09c.05-.09,.09-.15,.12-.19,.03-.04,.07-.11,.12-.19,.05-.09,.09-.16,.1-.22,.87-1.72,.65-3.56-.63-5.51-.83-1.25-2.02-1.94-3.57-2.07-1.55-.13-3.07,.3-4.54,1.27-.27,.18-.51,.36-.72,.55-.21,.19-.39,.4-.53,.65-.14,.25-.27,.46-.36,.65-.1,.19-.19,.46-.29,.83s-.16,.63-.18,.8c-.03,.17-.08,.49-.16,.96-.08,.47-.14,.8-.18,.98l-2.05,11.93c-.45,2.69-1.87,4.83-4.27,6.41-2.87,1.89-5.93,2.4-9.2,1.53-3.27-.87-5.82-2.7-7.66-5.49-1.31-1.99-2.09-4.1-2.34-6.33-.14-1.31-.09-2.26,.15-2.87,.24-.61,.82-1.22,1.75-1.83,2.59-1.71,4.2-2.1,4.82-1.15,.44,.66-.07,1.79-1.51,3.4-.88,1.03-1.35,2.28-1.41,3.74-.06,1.47,.39,2.93,1.36,4.39,.9,1.36,2.25,2.04,4.06,2.05,1.81,0,3.58-.56,5.33-1.71,1.28-.84,2.1-2.38,2.45-4.62l1.97-12.55c.34-2.43,1.58-4.34,3.71-5.75,2.9-1.91,6.01-2.65,9.33-2.21,3.32,.44,5.81,1.93,7.49,4.47Z"/><path d="M559.03,213.74c1.29-.63,1.79-1.24,1.5-1.84l-3.33-6.87c-.33-.68-.71-1.09-1.15-1.25-.44-.16-1.07-.25-1.9-.26-.26-.01-.66,0-1.17,.05-.52,.04-.93,.07-1.24,.08-.31,0-.6-.02-.89-.09-.29-.07-.48-.2-.57-.38-.33-.68-.01-1.25,.95-1.71,.42-.2,1.02-.44,1.82-.71,.8-.27,1.55-.58,2.26-.92,.38-.18,.89-.45,1.54-.81,.65-.36,1.06-.58,1.22-.66,.42-.2,.83-.29,1.23-.25,.4,.04,.67,.19,.8,.45,.07,.15,.09,.35,.06,.6-.03,.25-.12,.58-.25,.99-.14,.41-.22,.79-.26,1.14,.19,.51,.37,1.04,.54,1.58,.16,.55,.29,.98,.4,1.3,.1,.32,.18,.54,.24,.65l9.53,19.66c.71,1.46,1.7,2.61,2.98,3.43,.16,.11,.38,.22,.67,.34,.29,.11,.51,.24,.68,.37,.17,.13,.29,.29,.38,.47,.15,.3,.15,.6,.01,.9-.14,.3-.35,.52-.65,.66-.12,.06-.49,.19-1.09,.39-.6,.2-1.17,.43-1.71,.69-.58,.28-1.4,.7-2.44,1.25-1.05,.55-1.65,.87-1.82,.95-.96,.47-1.57,.43-1.82-.09-.18-.38,.43-1.51,1.83-3.39,.86-1.21,1.11-2.16,.77-2.88l-4.23-8.73c-.22-.45-.98-.36-2.27,.26l-23.53,11.41c-2.63,1.27-3.95,3.01-3.97,5.2-.02,.29,.01,.79,.08,1.53,.07,.73,.08,1.29,.04,1.68-.04,.39-.21,.66-.5,.8-.58,.28-1.23-.15-1.94-1.29-.04-.08-.21-.51-.52-1.31-.31-.8-.69-1.75-1.15-2.85-.46-1.1-.88-2.05-1.26-2.83-.38-.79-.85-1.67-1.39-2.63-.54-.97-1.02-1.78-1.42-2.44-.4-.67-.62-1.03-.65-1.11-.48-1.3-.42-2.09,.16-2.37,.29-.14,.6-.11,.94,.1,.33,.21,.77,.57,1.3,1.08,.53,.51,.91,.85,1.15,1.01,1.73,1.34,3.91,1.37,6.54,.1l23.54-11.41Z"/><path d="M545,275.94c-.44-1.48-.98-3.06-1.63-4.74-.65-1.68-1.03-2.74-1.16-3.18-.13-.44-.16-.9-.08-1.38,.07-.48,.29-.77,.65-.88,.31-.09,.61-.02,.9,.22,.29,.24,.65,.65,1.1,1.24,.44,.59,.76,.98,.97,1.18,1.26,1.32,2.61,1.55,4.05,.69l5.82-3.63c.49-.32,.66-.72,.51-1.2l-2.98-10.02c-.14-.48-.48-.73-1.02-.74l-7.95-.12c-1.6,0-2.4,.71-2.41,2.15,0,1.61-.41,2.54-1.21,2.78-.76,.23-1.34-.36-1.76-1.76-.12-.4-.3-1.25-.54-2.55-.24-1.3-.42-2.13-.52-2.49-.17-.56-.45-1.25-.83-2.07-.39-.82-.62-1.35-.69-1.59-.39-1.32-.21-2.09,.54-2.32,.31-.09,.61,0,.91,.25,.3,.26,.66,.68,1.1,1.27,.44,.59,.76,.98,.97,1.18,.15,.17,.29,.33,.43,.46,.14,.13,.27,.25,.39,.34,.12,.09,.26,.18,.41,.27,.15,.09,.25,.15,.31,.2,.06,.05,.19,.08,.4,.11,.2,.03,.33,.05,.39,.08,.06,.03,.22,.05,.5,.08,.27,.03,.46,.04,.55,.03,.09,0,.33,0,.7,.02,.37,.02,.65,.02,.84,.01l30.93,.79c.54,.01,1.07,.03,1.61,.04,.54,.01,.94,.02,1.21,.03,.27,0,.51,.02,.74,.04,.22,.02,.39,.07,.51,.14,.12,.07,.2,.17,.23,.29,.17,.43,.67,.84,1.5,1.25,.82,.41,1.25,.65,1.27,.73,.06,.2,.04,.4-.07,.61-.11,.21-.31,.43-.6,.67-.29,.24-.58,.46-.86,.65-.28,.19-.71,.47-1.28,.84-.57,.37-1.01,.66-1.33,.89l-22.51,15.32c-2.65,1.83-4.41,3.21-5.27,4.12-.87,.91-1.38,2.15-1.54,3.72-.15,1.78-.6,2.79-1.35,3.02-.71,.21-1.24-.26-1.58-1.42-.12-.4-.3-1.26-.55-2.58-.25-1.32-.48-2.34-.69-3.06Zm12.78-22.42c-.6-.08-1-.06-1.18,.06-.18,.12-.2,.42-.06,.9l2.18,7.32c.18,.6,.41,.9,.7,.9,.29,0,.92-.32,1.89-.96l11.38-7.37c.57-.35,.44-.55-.4-.6l-14.52-.25Z"/><path d="M589.7,291.06c.32,2.19,0,4.36-.95,6.53-.46,1-1.12,1.68-1.98,2.06-.86,.38-2.04,.68-3.56,.9-1.24,.18-1.92-.14-2.04-.97-.05-.33,.11-.68,.48-1.05,.37-.37,.95-.87,1.75-1.49,.08-.06,.15-.1,.19-.12,.04-.03,.11-.07,.19-.12,.09-.05,.15-.11,.19-.15,1.51-1.19,2.1-2.94,1.77-5.25-.22-1.49-1-2.62-2.36-3.39-1.35-.77-2.9-1.03-4.65-.78-.32,.05-.62,.11-.89,.19-.27,.08-.52,.2-.76,.36-.23,.16-.44,.31-.6,.44-.17,.13-.37,.34-.61,.63-.24,.29-.41,.5-.5,.64-.1,.14-.28,.41-.55,.81-.27,.4-.46,.67-.58,.81l-6.92,9.93c-1.55,2.25-3.74,3.58-6.59,4-3.4,.49-6.39-.35-8.98-2.52-2.59-2.18-4.12-4.91-4.61-8.22-.34-2.35-.15-4.6,.57-6.73,.43-1.24,.88-2.09,1.35-2.54,.47-.45,1.26-.75,2.36-.91,3.07-.45,4.69-.11,4.85,1,.11,.78-.82,1.6-2.81,2.43-1.23,.56-2.19,1.49-2.86,2.79-.68,1.3-.89,2.82-.64,4.55,.23,1.61,1.17,2.8,2.8,3.58,1.63,.77,3.49,1.01,5.55,.71,1.51-.22,2.91-1.27,4.18-3.14l7.11-10.52c1.34-2.05,3.27-3.26,5.8-3.63,3.44-.5,6.57,.15,9.39,1.96s4.44,4.21,4.88,7.23Z"/></g><path d="M148.75,327.75c-4.41-72.75,41.37-142.78,108.31-170.64,93.25-39.8,202.88,5.94,238.8,101,8.38,22.3,12.21,46.19,10.89,69.64-1.35-23.42-6.72-46.4-16.33-67.38-33.47-74.98-115.73-118.44-196.45-102.37-81.3,15.24-141.57,87.41-145.22,169.75h0Z"/><g><path d="M145.41,453.45c.76,1.15,1.38,2.2,1.85,3.17,.47,.96,.78,1.72,.93,2.28,.15,.55,.35,1.35,.62,2.37,.26,1.03,.51,1.92,.73,2.67,.13,.37-.31,1.08-1.32,2.16-1.46,1.57-3.21,3.04-5.26,4.4-.58,.38-1.05,.3-1.42-.26-.28-.42,.11-1.5,1.17-3.26,2.51-4.18,2.15-8.7-1.08-13.56-2.24-3.37-5.61-5.19-10.1-5.46-4.5-.27-8.77,.94-12.83,3.64-4.37,2.9-7.4,6.62-9.12,11.17-1.71,4.55-1.36,8.64,1.07,12.29,.95,1.42,2.17,2.74,3.67,3.95,1.5,1.21,2.5,1.65,3,1.31l7.01-4.66c.31-.21,.51-.79,.59-1.75,.09-.96,.06-1.84-.09-2.65-.04-.23-.09-.49-.15-.8-.07-.31-.12-.54-.16-.68-.04-.15-.08-.33-.12-.56-.04-.23-.05-.39-.04-.5s.04-.24,.08-.39c.04-.15,.09-.28,.17-.37,.07-.1,.17-.19,.28-.26,.62-.41,1.17-.25,1.66,.48,.28,.42,.98,1.56,2.12,3.44,1.13,1.88,1.91,3.13,2.33,3.75,.39,.59,.96,1.36,1.71,2.32,.75,.96,1.26,1.64,1.54,2.06,.46,.69,.31,1.3-.47,1.81-.19,.13-.51,.15-.96,.07-.44-.08-.85-.23-1.21-.44-.47-.29-1.17-.54-2.09-.75-.92-.21-1.54-.22-1.85-.01l-6.08,4.04c-.5,.33-.88,.92-1.12,1.76-.25,.84-.43,1.3-.55,1.38-.66,.44-2.58-.94-5.76-4.14s-5.7-6.19-7.54-8.97c-2.79-4.21-3.6-9.07-2.43-14.59,1.18-5.52,4.04-9.79,8.6-12.82,5.68-3.77,11.64-5,17.88-3.69,6.24,1.31,11.16,4.66,14.74,10.05Z"/><path d="M145.47,518.32c-1.07-1.12-2.27-2.28-3.6-3.48s-2.17-1.97-2.48-2.3c-.32-.33-.55-.73-.7-1.19-.15-.46-.09-.82,.18-1.08,.23-.22,.54-.29,.9-.21s.88,.29,1.54,.61c.66,.32,1.13,.53,1.4,.61,1.73,.6,3.03,.19,3.92-1.23l3.54-5.87c.29-.5,.26-.94-.09-1.3l-7.21-7.57c-.35-.36-.76-.43-1.25-.2l-7.13,3.5c-1.43,.72-1.81,1.73-1.17,3.01,.73,1.44,.79,2.45,.19,3.02-.57,.54-1.36,.29-2.37-.77-.29-.3-.83-.98-1.64-2.03-.81-1.05-1.34-1.71-1.6-1.98-.4-.42-.96-.91-1.68-1.47-.72-.55-1.17-.92-1.34-1.1-.95-1-1.14-1.77-.57-2.31,.23-.22,.54-.29,.92-.19,.38,.1,.9,.31,1.56,.63,.66,.32,1.13,.53,1.4,.61,.21,.09,.41,.16,.59,.22,.18,.06,.35,.1,.5,.12,.15,.03,.32,.05,.49,.06,.17,.01,.29,.02,.37,.04,.08,.01,.21-.01,.4-.08,.19-.07,.32-.1,.38-.1,.06,0,.22-.05,.48-.15,.25-.1,.42-.17,.51-.22,.08-.05,.29-.15,.63-.3,.34-.15,.59-.27,.75-.37l27.92-13.35c.48-.23,.97-.46,1.45-.69,.48-.23,.85-.4,1.09-.52,.24-.11,.47-.21,.68-.3,.21-.08,.38-.12,.52-.11,.14,.01,.25,.06,.34,.15,.35,.3,.98,.45,1.9,.44,.92,0,1.41,.02,1.46,.08,.14,.15,.21,.34,.21,.58,0,.23-.08,.52-.23,.87-.15,.35-.31,.67-.47,.97-.16,.3-.42,.74-.76,1.32-.34,.58-.6,1.05-.79,1.4l-13.1,23.87c-1.53,2.84-2.47,4.86-2.83,6.06-.36,1.21-.25,2.54,.32,4.02,.68,1.66,.74,2.76,.16,3.3-.54,.51-1.22,.33-2.06-.55-.29-.3-.84-.99-1.66-2.05-.82-1.06-1.49-1.87-2.01-2.41Zm1.2-25.78c-.58,.2-.92,.4-1.03,.59-.11,.19,.01,.47,.36,.83l5.27,5.53c.43,.45,.78,.61,1.04,.48,.26-.13,.68-.7,1.25-1.71l6.79-11.73c.35-.57,.15-.69-.63-.36l-13.05,6.37Z"/><path d="M191.72,503.09c1.74,1.37,3,3.17,3.8,5.39,.35,1.04,.34,2-.02,2.86-.36,.87-1.02,1.9-1.97,3.1-.78,.98-1.49,1.21-2.15,.7-.26-.21-.39-.57-.37-1.09,.01-.52,.1-1.28,.25-2.29,.02-.1,.04-.17,.06-.22,.01-.05,.03-.12,.06-.22,.02-.1,.03-.18,.03-.24,.28-1.91-.5-3.58-2.33-5.03-1.18-.93-2.53-1.21-4.04-.84-1.52,.37-2.82,1.25-3.91,2.63-.2,.25-.37,.5-.51,.75-.14,.24-.24,.51-.3,.78-.06,.28-.11,.52-.14,.73-.03,.21-.04,.5-.01,.88,.02,.37,.05,.65,.08,.81,.03,.17,.08,.49,.16,.96,.08,.47,.12,.8,.13,.99l1.8,11.97c.42,2.7-.26,5.17-2.04,7.43-2.13,2.69-4.88,4.14-8.25,4.34-3.38,.2-6.37-.73-8.99-2.8-1.87-1.47-3.27-3.23-4.21-5.27-.54-1.2-.8-2.12-.76-2.77,.04-.65,.4-1.41,1.09-2.29,1.92-2.44,3.33-3.31,4.21-2.61,.62,.49,.5,1.72-.37,3.7-.51,1.25-.56,2.58-.16,3.99,.4,1.41,1.29,2.66,2.67,3.75,1.28,1.01,2.78,1.23,4.5,.67,1.72-.56,3.23-1.66,4.52-3.3,.95-1.2,1.24-2.92,.88-5.16l-2.07-12.53c-.44-2.41,.14-4.62,1.72-6.62,2.15-2.73,4.88-4.41,8.16-5.03s6.12,0,8.52,1.89Z"/><path d="M211.1,524.37c.72-1.24,.8-2.03,.22-2.37l-6.6-3.85c-.65-.38-1.2-.51-1.65-.4-.45,.11-1.03,.39-1.73,.85-.23,.14-.54,.37-.95,.69-.41,.33-.74,.58-.98,.75-.25,.18-.51,.32-.79,.42-.28,.11-.51,.11-.69,0-.65-.38-.71-1.03-.17-1.95,.23-.4,.61-.94,1.12-1.6,.51-.67,.96-1.34,1.36-2.02,.21-.36,.48-.87,.82-1.53,.34-.66,.55-1.07,.65-1.23,.23-.4,.53-.7,.88-.89,.35-.2,.66-.22,.91-.07,.14,.08,.27,.24,.38,.46,.11,.23,.22,.55,.34,.97,.12,.42,.26,.78,.42,1.09,.44,.31,.89,.65,1.33,1.02,.44,.37,.79,.65,1.06,.86,.26,.21,.45,.34,.56,.41l18.87,11.01c1.41,.82,2.87,1.22,4.38,1.19,.19,0,.44-.03,.74-.09,.3-.06,.56-.09,.77-.07s.4,.07,.58,.18c.29,.17,.46,.42,.51,.74,.05,.33,0,.63-.17,.91-.07,.12-.3,.43-.69,.93-.39,.5-.73,1.01-1.04,1.53-.33,.56-.77,1.36-1.33,2.4-.56,1.04-.89,1.64-.98,1.8-.54,.92-1.06,1.23-1.56,.94-.36-.21-.48-1.49-.37-3.84,.04-1.48-.28-2.42-.96-2.82l-8.38-4.89c-.43-.25-1.01,.24-1.74,1.48l-13.18,22.59c-1.47,2.52-1.61,4.7-.4,6.53,.15,.25,.45,.65,.92,1.22,.47,.57,.79,1.03,.97,1.37,.18,.35,.19,.66,.03,.94-.33,.56-1.1,.56-2.33,.01-.07-.04-.46-.31-1.16-.8-.7-.49-1.55-1.07-2.54-1.73-.99-.66-1.87-1.21-2.62-1.65-.76-.44-1.63-.91-2.62-1.41-.99-.5-1.84-.91-2.54-1.24-.7-.33-1.09-.52-1.16-.56-1.12-.81-1.52-1.5-1.19-2.06,.16-.28,.44-.43,.84-.44,.39-.01,.95,.05,1.67,.17s1.23,.19,1.51,.2c2.18,.15,4.01-1.04,5.49-3.56l13.18-22.59Z"/><path d="M250.05,561.92c1.5,7.44,3.56,13.27,6.16,17.5,.44,.75,1.43,1.5,2.98,2.25,.64,.33,.84,.82,.6,1.47-.2,.57-.78,.89-1.74,.96-.96,.07-1.99-.08-3.09-.48-3.26-1.17-5.39-3.09-6.38-5.76-2.09-5.43-3.57-11.08-4.43-16.96-.27-1.72-1.64-3.03-4.12-3.91-1.1-.39-2.04,.5-2.82,2.68l-1.99,5.57c-.99,2.75-.72,4.91,.8,6.49,.19,.21,.56,.56,1.13,1.03,.56,.47,.96,.86,1.21,1.17,.24,.31,.31,.62,.2,.92-.22,.61-.98,.76-2.28,.44-.08-.03-.51-.22-1.29-.57-.78-.35-1.72-.76-2.82-1.23s-2.06-.85-2.88-1.14c-.75-.27-1.63-.55-2.66-.84-1.03-.29-1.92-.54-2.69-.74-.77-.2-1.19-.32-1.27-.35-1.25-.6-1.76-1.2-1.55-1.81,.11-.3,.36-.5,.74-.58,.38-.08,.94-.13,1.68-.14,.73,0,1.24-.04,1.53-.08,2.17-.25,3.75-1.76,4.74-4.51l8.19-22.85c.14-.39,.26-.76,.36-1.09s.14-.66,.12-.99c-.02-.33-.02-.59-.02-.78,0-.19-.08-.42-.25-.68-.17-.26-.28-.45-.33-.56-.05-.12-.23-.32-.55-.6-.32-.29-.54-.48-.66-.57-.12-.09-.4-.3-.84-.63-.44-.33-.75-.55-.93-.66-.55-.44-.73-.93-.54-1.45,.25-.7,1.08-.84,2.48-.44,5.11,1.34,9.47,2.65,13.08,3.95,3.34,1.2,5.98,3.04,7.92,5.54,1.94,2.5,2.37,5.27,1.27,8.33-1.3,3.62-3.95,6.12-7.94,7.5-.2,.07-.41,.14-.6,.19-.2,.05-.34,.1-.42,.15-.08,.04-.16,.1-.23,.18-.07,.07-.13,.18-.18,.31-.2,.57-.1,1.84,.3,3.8Zm-9.85-8.7c.22,.87,.71,1.43,1.45,1.7,.86,.31,1.79,.49,2.76,.55,.98,.05,1.67-.04,2.07-.29,3.21-1.41,5.34-3.58,6.39-6.5,.77-2.14,.67-4.18-.3-6.13-.96-1.95-2.45-3.28-4.45-4-.83-.3-1.6-.33-2.33-.1-.73,.23-1.2,.66-1.42,1.27l-3.73,10.41c-.45,1.27-.6,2.3-.44,3.09Z"/><path d="M291.65,546.96c4.19,.73,7.69,3.45,10.49,8.15,2.8,4.7,3.77,9.54,2.9,14.52-1.05,5.98-3.71,10.85-7.98,14.6-4.28,3.75-9.01,5.17-14.19,4.27-5.59-.98-9.89-3.75-12.91-8.33-3.01-4.58-3.98-9.95-2.91-16.11,1.12-6.4,3.94-11.12,8.48-14.16,4.54-3.04,9.91-4.02,16.12-2.94Zm-17.27,15.91c-.9,5.16-.48,10.05,1.25,14.66,1.74,4.61,4.62,7.27,8.65,7.97,3.41,.6,6.32-.63,8.71-3.67,2.4-3.04,3.99-6.82,4.78-11.35,.85-4.84,.5-9.35-1.04-13.53-1.54-4.17-4.2-6.59-7.98-7.25-3.29-.57-6.34,.49-9.14,3.21-2.8,2.71-4.55,6.03-5.24,9.96Z"/><path d="M319.83,582.64c.05,2.92,1.06,4.85,3.04,5.79,.25,.13,.73,.33,1.42,.57,.69,.24,1.21,.47,1.54,.67,.34,.2,.51,.47,.51,.79,.01,.65-.65,1.05-1.98,1.21-.08,0-.44-.03-1.07-.09s-1.42-.12-2.38-.17c-.96-.05-1.88-.07-2.76-.06-.88,.01-1.75,.06-2.63,.15-.88,.08-1.59,.17-2.16,.24-.56,.08-.89,.12-.97,.12-1.38-.12-2.07-.5-2.08-1.15,0-.32,.16-.59,.49-.81s.84-.45,1.52-.72c.68-.27,1.15-.47,1.4-.61,1.95-1,2.89-2.97,2.85-5.89l-.29-18.15c-.05-3.25-.38-5.26-.97-6.04l-2.36-2.81c-.26-.32-.56-.69-.93-1.1s-.64-.73-.83-.96c-.19-.23-.39-.47-.61-.72-.21-.25-.36-.47-.45-.65-.09-.18-.13-.35-.13-.48,0-.51,.3-.77,.93-.78l6.07-.1c.83-.01,1.95,.8,3.36,2.45l16.92,20.39c3.23,3.89,5.08,5.83,5.54,5.82,.25,0,.4-.29,.46-.84,.05-.56,.06-1.9,.03-4.04l-.28-16.97c0-.51-.05-.96-.12-1.36-.07-.39-.14-.73-.2-1-.07-.28-.22-.53-.45-.76-.23-.23-.39-.4-.48-.51-.09-.11-.34-.26-.76-.44-.42-.18-.7-.29-.85-.33-.15-.04-.53-.15-1.13-.33-.61-.17-1.02-.28-1.23-.33-.67-.22-1.01-.61-1.02-1.17,0-.37,.22-.67,.67-.92,.46-.24,.95-.36,1.5-.37,.83-.01,1.81,.03,2.91,.13s2.04,.14,2.79,.13c.75-.01,1.7-.09,2.84-.22,1.15-.13,2.07-.21,2.78-.22,.54,0,1.04,.1,1.51,.32,.46,.23,.7,.52,.7,.89,0,.56-.3,.96-.92,1.2-.25,.1-.61,.22-1.09,.37-.48,.15-.81,.25-1,.29-.19,.05-.46,.15-.81,.29s-.59,.28-.71,.39c-.12,.12-.3,.26-.53,.43-.23,.17-.38,.35-.46,.56s-.17,.46-.27,.74c-.1,.28-.17,.59-.2,.94s-.05,.75-.04,1.22l.45,27.75c.02,1.21,.07,2.33,.15,3.37,.08,1.04,.12,1.82,.13,2.33,0,.56-.4,.84-1.24,.86-.42,0-1.14-.35-2.18-1.08-1.04-.72-2.1-1.73-3.21-3.01l-18.77-22.45c-.89-1.1-1.51-1.64-1.84-1.64-.29,0-.41,1.58-.36,4.74l.23,14.12Z"/><path d="M373.83,545.09c4.17-.83,8.42,.44,12.73,3.81,4.31,3.37,6.96,7.54,7.95,12.5,1.19,5.96,.46,11.46-2.17,16.5-2.63,5.04-6.53,8.08-11.69,9.1-5.57,1.11-10.58,.08-15.05-3.1-4.46-3.18-7.31-7.83-8.53-13.97-1.27-6.37-.34-11.79,2.79-16.27,3.13-4.48,7.78-7.33,13.96-8.56Zm-10.35,21.07c1.02,5.14,3.18,9.54,6.46,13.22s6.93,5.11,10.94,4.31c3.4-.68,5.66-2.87,6.8-6.57,1.13-3.7,1.25-7.8,.36-12.31-.96-4.82-2.91-8.9-5.86-12.24-2.94-3.34-6.3-4.63-10.06-3.88-3.28,.65-5.73,2.75-7.36,6.29-1.64,3.54-2.06,7.27-1.28,11.18Z"/><path d="M444.59,554.96c1.33,2.71,2.99,4.12,4.99,4.23,.29,.03,.79,.03,1.53,0,.73-.03,1.29-.02,1.68,.04,.39,.06,.65,.24,.77,.54,.25,.6-.21,1.22-1.38,1.87-.08,.03-.52,.18-1.34,.45-.82,.27-1.78,.6-2.91,1-1.12,.4-2.09,.77-2.89,1.11-.81,.34-1.71,.76-2.7,1.26-.99,.5-1.83,.93-2.51,1.29-.68,.37-1.06,.56-1.14,.6-1.32,.41-2.11,.32-2.36-.28-.13-.3-.08-.61,.15-.93,.23-.32,.61-.73,1.14-1.24,.53-.5,.89-.87,1.07-1.09,1.52-1.75,1.67-3.93,.43-6.53l-5.7-12.17c-1.98-4.04-3.25-5.95-3.78-5.72-.27,.11-.47,.26-.6,.44-.13,.18-.25,.76-.38,1.75-.13,.99-.14,2.39-.05,4.21l.43,15.61c.02,.9-.02,2.34-.11,4.31-.09,1.98-.25,3.02-.48,3.11-.31,.13-.72,0-1.25-.38-.53-.38-1.42-1.26-2.68-2.64l-12.6-13.85c-2.12-2.33-3.37-3.41-3.75-3.25-.27,.11-.42,.18-.46,.2-.04,.02,.02,.4,.17,1.13,.15,.74,.54,1.94,1.15,3.59l5.03,13.96c.38,1.1,.96,2.18,1.74,3.23,.79,1.05,1.6,1.6,2.43,1.65,.28,.03,.79,.03,1.53,0,.73-.03,1.29-.02,1.68,.04,.39,.06,.65,.24,.77,.54,.25,.6-.21,1.22-1.38,1.87-.08,.03-.42,.14-1.02,.32-.6,.18-1.36,.43-2.27,.74-.91,.31-1.77,.64-2.58,.98-.81,.34-1.6,.72-2.38,1.12-.78,.41-1.42,.75-1.91,1.04-.49,.28-.78,.44-.85,.47-1.32,.41-2.11,.32-2.36-.28-.13-.3-.09-.61,.12-.92,.21-.31,.59-.73,1.14-1.24,.55-.51,.92-.88,1.1-1.11,1.41-1.6,1.57-4.32,.49-8.14l-5.26-17.87c-.66-2.19-1.34-3.69-2.04-4.5-.71-.81-1.66-1.46-2.87-1.96-.34-.16-.88-.32-1.63-.48-.75-.16-1.37-.34-1.86-.53-.49-.2-.8-.44-.93-.74-.25-.6,.27-1.17,1.58-1.73,.65-.28,1.67-.65,3.07-1.11,1.39-.46,2.55-.89,3.47-1.28,.77-.33,1.56-.3,2.38,.09,.82,.38,1.81,1.19,2.96,2.41l13.67,14.61c.17,.18,.49,.32,.96,.42,.47,.1,.79,.12,.94,.05,.54-.23,.79-1.19,.75-2.89l.18-22.21c.02-.81,.19-1.38,.51-1.69,.32-.31,.92-.66,1.81-1.03,.46-.2,1.59-.8,3.38-1.81,1.79-1.01,3.01-1.65,3.67-1.93,.61-.26,1.08-.03,1.38,.7,.13,.3,.09,.61-.12,.92s-.82,1.04-1.83,2.17c-.74,.82-1.1,1.7-1.09,2.65,.02,.95,.44,2.3,1.28,4.07l9.93,20.72Z"/><path d="M451.87,512.69c.46-.29,.95-.46,1.46-.5,.51-.05,.87,.09,1.06,.4,.3,.47,.24,.97-.17,1.5-.15,.15-.41,.43-.76,.85-.36,.42-.58,.68-.68,.8-.1,.12-.27,.35-.52,.7-.25,.35-.39,.59-.43,.72-.04,.13-.11,.35-.23,.64-.11,.29-.15,.53-.1,.72,.05,.19,.1,.45,.15,.77,.05,.32,.17,.64,.33,.94,.17,.31,.36,.63,.58,.99l13.07,20.79c1.55,2.47,3.42,3.6,5.6,3.38,.29-.02,.79-.1,1.51-.25,.72-.15,1.27-.23,1.67-.23,.39,0,.68,.14,.85,.41,.35,.55-.01,1.24-1.07,2.07-.07,.04-.49,.26-1.25,.66-.76,.4-1.67,.88-2.71,1.46-1.04,.57-1.94,1.09-2.68,1.56-.74,.47-1.56,1.02-2.46,1.67-.9,.65-1.66,1.21-2.27,1.68s-.96,.73-1.03,.77c-1.24,.62-2.03,.65-2.38,.1-.17-.27-.17-.59,0-.94s.48-.82,.93-1.41c.45-.58,.74-1,.88-1.25,1.14-1.87,.94-4.04-.62-6.51l-13.07-20.79c-.22-.35-.44-.67-.64-.96-.2-.28-.44-.52-.7-.71s-.48-.34-.63-.47c-.15-.12-.38-.2-.69-.22-.31-.02-.53-.05-.65-.09-.12-.03-.39-.01-.81,.06-.42,.07-.71,.13-.86,.17-.15,.04-.49,.13-1.01,.27-.53,.14-.89,.25-1.09,.32-.69,.16-1.18,0-1.48-.47-.2-.31-.16-.69,.1-1.13,.26-.44,.63-.8,1.09-1.09,.71-.44,1.74-1.02,3.09-1.74,1.35-.71,2.35-1.27,2.98-1.67,.64-.4,1.59-1.06,2.85-2,1.26-.93,2.2-1.58,2.8-1.96Z"/><path d="M473.26,494.7c1.47-1.23,3.64-2.45,6.51-3.64,2.87-1.19,4.32-1.8,4.35-1.83,1.05-.7,3.17,.85,6.36,4.66,.83,1,.96,1.73,.39,2.22-.67,.56-2.25-.02-4.73-1.75-1.24-.83-3.06-.84-5.45-.02-2.39,.82-4.51,2.01-6.36,3.57-3.1,2.6-4.65,6.06-4.65,10.39,0,4.33,1.54,8.32,4.61,11.98,3.52,4.19,7.79,6.77,12.81,7.73,5.03,.96,9.41-.13,13.15-3.27,.93-.78,1.65-1.58,2.16-2.4,.51-.82,.8-1.79,.87-2.91,.07-1.12,.08-2.03,.03-2.75-.05-.71-.21-1.85-.49-3.41-.27-1.56-.46-2.69-.56-3.39-.08-.42,.09-.8,.51-1.15,.51-.43,1.19-.15,2.02,.85,.33,.39,1.1,2.62,2.33,6.67,.39,1.25,.58,2.12,.56,2.62-.02,.5-.21,1.12-.58,1.85-1.53,2.79-3.81,5.46-6.85,8.01-2.75,2.31-5.89,3.88-9.41,4.71-3.52,.84-7.11,.73-10.77-.32-3.66-1.05-6.75-3.08-9.28-6.1-4.32-5.15-6.2-10.81-5.62-16.98,.57-6.17,3.27-11.28,8.1-15.33Z"/><path d="M500.1,467.88c2.72-3.27,6.82-4.95,12.29-5.04,5.47-.09,10.15,1.49,14.04,4.72,4.67,3.89,7.56,8.62,8.68,14.19s0,10.38-3.37,14.43c-3.63,4.36-8.18,6.71-13.65,7.05-5.47,.34-10.61-1.5-15.42-5.5-4.99-4.15-7.67-8.96-8.06-14.41-.38-5.45,1.44-10.59,5.48-15.44Zm5.2,22.9c4.03,3.35,8.47,5.42,13.33,6.21,4.86,.79,8.6-.39,11.22-3.53,2.22-2.66,2.6-5.79,1.16-9.38-1.44-3.59-3.93-6.86-7.46-9.79-3.78-3.14-7.86-5.09-12.25-5.84-4.39-.75-7.81,.36-10.26,3.31-2.14,2.57-2.73,5.74-1.77,9.52,.96,3.78,2.96,6.95,6.03,9.5Z"/><path d="M517.61,442.69c1.16-1.88,2.8-3.35,4.92-4.39,1-.46,1.94-.57,2.84-.3,.9,.26,2,.79,3.3,1.6,1.07,.66,1.38,1.34,.94,2.05-.18,.29-.52,.45-1.04,.5s-1.29,.05-2.3,.02c-.1-.01-.18-.02-.23-.03-.05,0-.13-.02-.23-.03-.1-.01-.18-.01-.24,0-1.93-.06-3.5,.9-4.73,2.89-.79,1.28-.91,2.65-.37,4.11,.54,1.46,1.56,2.66,3.06,3.58,.28,.17,.54,.31,.8,.42,.26,.11,.53,.18,.81,.21,.28,.03,.53,.05,.74,.05,.21,0,.5-.02,.87-.09,.37-.07,.64-.12,.8-.17,.17-.04,.48-.13,.94-.27,.46-.13,.79-.21,.97-.25l11.68-3.16c2.63-.73,5.17-.34,7.62,1.17,2.92,1.8,4.67,4.37,5.26,7.7,.59,3.33,0,6.42-1.75,9.26-1.25,2.02-2.84,3.62-4.76,4.79-1.13,.68-2.02,1.04-2.67,1.08-.65,.04-1.45-.23-2.4-.82-2.64-1.63-3.67-2.93-3.08-3.89,.42-.67,1.66-.69,3.72-.06,1.3,.36,2.63,.26,3.99-.3,1.36-.56,2.49-1.59,3.41-3.08,.85-1.38,.91-2.9,.15-4.54-.76-1.64-2.02-3.01-3.8-4.11-1.3-.8-3.04-.9-5.22-.28l-12.21,3.5c-2.35,.71-4.6,.4-6.77-.95-2.96-1.83-4.94-4.34-5.94-7.53-1-3.19-.7-6.08,.9-8.68Z"/></g><circle class="cls-1" cx="327.75" cy="327.75" r="323.5"/><path d="M481.83,418.92c-23.07,47.68-71.72,82.77-124.28,91.21-9.14,1.79-20.41,2.38-29.79,2.62-8.27-.2-18.76-.74-26.85-2.09-22.59-3.49-44.7-11.39-64.16-23.33-27.11-16.49-49.46-40.49-63.08-68.42,17.92,25.31,41.13,46.09,67.76,60.22,84.18,44.78,186.05,17.66,240.39-60.23h0Z"/><g><path d="M124.24,343.6c-5.43,1.81-20.12,23.28-40.01,35.03-9.37,5.51-28.27,15.13-38.21,19.22-3.35,1.38-4.07,0-.11-2.25,11.41-6.47,24.25-14.59,34.92-22.17,15.31-10.87,26.35-23.17,34.2-40.64,1.7-3.78,5.13-4.4,9.76-2.49,12,4.95,24.34,8.96,37.48,7.99,11-.81,74.58-12.96,93.98-17.31,16.93-3.8,65.1-18.08,114.76-12.79,31.9,3.78,60.12,15.75,83.37,38.6,14.1,13.85,27.69,28.12,39.04,44.32,7.78,11.1,18.71,12.07,30.48,10.28,32.75-4.98,62.09-18.36,89.28-36.87,1.24-.84,5.66-2.86,6.56-1.95,.9,.9-.15,3.41-2.71,5.43-12.66,9.95-50.2,31.69-79.18,41.36-9.71,3.24-19.59,6.7-30.12,5.32-8.11-1.06-14.65-4.39-19.71-10.78-8-10.13-15.63-20.59-24.17-30.24-19.05-21.54-47.56-46.35-95.48-50.87-54.62-5.15-98.24,6.85-109.41,9.04-11.5,2.25-62.39,10.85-94.04,15.37-19.89,1.81-32.55-6.33-40.69-3.62Z"/><path d="M119.55,396.93c16.05,.51,21.87,2.73,29.11,.92,6.43-1.61,9.06-10.71,18.56-20.77,8.57-9.07,10.38-3.65,8.9-1.97-7.9,9.31-12.97,20.05-16.21,31.72-.46,1.65-1.98,7.54-5.82,6.39-27.13-8.14-43-11.58-76.71-7.66-10.72,.92-13.01,1.5-24,3.37-1.83,.31-5.54,1-5.76,.45-.23-.59,1-1.08,3.19-1.81,10.72-3.23,45.44-11.37,68.75-10.63Z"/><path d="M529.23,387.65c-2.79,.25-5.67-1.01-5.75-3.67-.07-2.65,1.89-4.82,5.27-4.7,18.74-1.37,29.56-5.03,40.42-8.6,21.48-7.06,38.6-21.11,42.35-19.97,1.32,.4-.35,2.35-2.17,4.14-3.03,2.97-22.24,14.88-38.19,21.19-12.5,4.95-37.62,11.22-41.94,11.61Z"/><path d="M133.28,361.68c-4.52,0-8.32,3.01-9.54,7.14-19.04,8.28-60.67,26.26-74.65,32.77-6.04,2.81-3.78,3.41,.78,1.75,4.65-1.59,24.64-8.8,29.1-10.33,14.4-4.93,33.04-10.41,49-12.97,1.54,.97,3.35,1.54,5.3,1.54,5.49,0,9.95-4.45,9.95-9.95s-4.45-9.95-9.95-9.95Zm0,13.56c-2,0-3.62-1.62-3.62-3.62s1.62-3.62,3.62-3.62,3.62,1.62,3.62,3.62-1.62,3.62-3.62,3.62Z"/><path d="M564.6,357.16c16.18-5.71,36.43-17.29,37.07-15.37,.9,2.71-23.46,16.31-35.16,20.1-13.45,4.35-27.62,8.78-41.7,8.84-4.96,.02-4.63-6.33-.9-6.33,9.04,0,25.32-1.81,40.69-7.23Z"/><path d="M546.52,348.12c26.22-3.62,41.44-15.88,44.17-15.02,4.66,1.46-25.18,16.83-41.46,19.55-7.06,1.3-18.12,2.09-25.32,2.71-3.39,.29-6.19-.51-6.21-2.95-.02-2.38,2.12-3.76,5.86-3.78,2.07,0,13.82,.76,22.95-.5Z"/></g><path d="M148.75,327.75c-4.41-72.75,41.37-142.78,108.31-170.64,93.25-39.8,202.88,5.94,238.8,101,8.38,22.3,12.21,46.19,10.89,69.64-1.35-23.42-6.72-46.4-16.33-67.38-33.47-74.98-115.73-118.44-196.45-102.37-81.3,15.24-141.57,87.41-145.22,169.75h0Z"/><path d="M481.83,418.92c-23.07,47.68-71.72,82.77-124.28,91.21-9.14,1.79-20.41,2.38-29.79,2.62-8.27-.2-18.76-.74-26.85-2.09-22.59-3.49-44.7-11.39-64.16-23.33-27.11-16.49-49.46-40.49-63.08-68.42,17.92,25.31,41.13,46.09,67.76,60.22,84.18,44.78,186.05,17.66,240.39-60.23h0Z"/></svg>